<svg width="1064" height="216" xmlns="http://www.w3.org/2000/svg" xmlns:xlink="http://www.w3.org/1999/xlink" xml:space="preserve" overflow="hidden"><g transform="translate(-117 -144)"><path d="M16.4758 177.508C6.60484 177.508 2.34677 170.516 0.943548 169.161-0.483871 166.355-0.483871 163.548 2.32258 160.742 3.72581 157.96 29.2016 121.597 40.5 106.21 51.7742 90.8468 81.4113 53.1048 98.3468 39.0968 116.71 25.1371 122.371 20.9516 128.008 19.5484 133.645 18.121 142.113 13.9355 156.242 20.9516 170.323 29.3468 175.984 37.7419 181.621 46.1129 187.258 54.5323 188.685 62.879 190.137 67.0887 191.516 71.2742 195.774 74.0807 201.411 72.6532 208.427 72.6532 212.734 71.25 218.298 72.6532 222.581 74.0565 228.218 76.8387 226.815 86.6613 225.363 95.0323 215.492 104.831 212.71 110.419 209.855 116.008 207.048 120.242 208.427 130.016 211.282 139.766 216.919 157.96 222.581 169.161 228.218 180.315 233.855 185.927 228.218 201.29 222.581 216.653 201.411 215.274 194.347 211.089 188.685 206.879 181.621 195.702 177.387 181.694 173.177 167.71 167.516 150.944 166.089 145.379 163.258 138.339 156.218 132.75 150.556 132.75 144.919 134.153 139.258 138.339 127.984 142.548 111.048 148.161 96.8952 152.371 81.3871 155.153 65.8548 157.935 50.3468 159.315 47.4919 160.718 43.2581 162.145 40.4758 162.145 39.0484 164.903 34.8387 167.734 30.5565 177.508 16.4758 177.508M101.202 82.4516C94.1129 89.4436 81.4113 103.452 80.0081 107.637 77.1774 113.226 80.0081 117.435 82.8145 117.435 85.6694 118.839 88.4758 118.839 96.9194 117.435 105.411 116.032 136.452 103.476 142.113 100.645 147.774 97.8629 147.774 92.2742 146.371 86.6855 146.371 83.8548 143.54 79.6936 140.734 75.5081 139.306 71.2742 133.669 64.3307 128.032 65.7097 118.137 67.0887 109.645 75.4839 101.202 82.4516" fill="#01426A" transform="matrix(1.00093 0 0 1 118.911 144)"/><path d="M229.621 71.2742C233.879 79.6694 245.177 78.2661 253.645 78.2661 260.734 78.2661 276.242 76.8629 281.879 75.5081 287.54 75.5081 294.605 78.2661 294.605 86.6855 294.605 96.4597 293.177 127.21 293.177 144 293.177 160.766 296.008 185.952 297.411 194.323 298.839 204.097 300.242 211.089 314.347 209.685 328.476 209.685 335.516 201.315 338.347 197.105 339.774 192.919 339.774 184.548 339.774 177.556 338.347 169.21 334.137 150.992 332.71 139.815 331.282 128.637 329.903 96.4839 331.282 88.1129 332.71 78.3145 339.774 69.9436 349.645 67.1371 359.54 62.9274 379.282 57.3387 391.984 54.5806 406.137 50.3468 441.387 40.5726 452.685 39.1694 465.411 37.8145 471.073 37.8145 478.137 37.8145 483.774 39.1694 499.306 43.4032 507.774 33.6048 516.266 25.2339 516.266 18.2177 516.266 14.0565 516.266 9.87097 509.177 0.0967742 497.879 0.0967742 486.605 0.0967742 466.839 0.0967742 441.387 7.06452 416.008 14.0806 377.903 22.4516 363.75 25.2581 348.242 29.4436 345.435 30.8468 342.605 29.4436 338.371 28.0161 336.944 28.0161 336.944 23.8548 338.371 19.6694 339.798 15.4839 339.798 9.87097 339.798 5.6371 335.516 1.45161 328.5 4.28226 322.839 8.46774 315.774 15.4597 311.54 22.4274 307.306 29.4194 304.5 36.4113 294.629 37.8145 284.71 39.1694 276.242 39.1694 269.226 37.8145 262.137 37.8145 256.5 35.0081 249.435 40.5968 242.371 44.7823 233.903 55.9597 231.073 61.5726 226.815 68.4919 229.621 69.871 229.621 71.2742" fill="#01426A" transform="matrix(1.00093 0 0 1 118.911 144)"/><path d="M459.774 69.871C452.71 71.25 454.137 68.4677 449.879 71.25 444.242 74.0565 432.944 86.6613 427.282 92.25 421.645 99.2177 420.218 99.2177 416.008 106.21 411.774 114.629 414.581 116.008 414.581 120.218 413.153 123 407.516 156.556 410.347 169.161 411.75 180.315 414.581 198.46 431.516 206.879 449.879 215.25 471.073 219.435 499.282 212.492 527.54 204.097 571.306 177.508 582.605 169.161 592.476 163.548 595.258 167.734 596.685 170.516 596.685 174.75 596.685 184.524 599.54 190.113 600.919 195.702 615.048 197.081 622.137 191.492 629.153 185.952 632.008 183.097 634.815 177.532 636.242 170.54 633.436 159.339 632.008 155.177 632.008 150.968 630.581 141.194 633.436 137.008 636.242 132.774 640.476 128.613 646.113 128.613 650.347 130.016 671.54 138.363 682.839 142.573 694.137 145.379 709.645 152.395 715.306 153.774 723.75 156.556 730.815 162.145 737.903 166.355 744.944 170.516 756.218 174.75 767.516 166.355 780.242 156.581 788.734 142.573 791.54 135.605 792.968 128.613 791.54 123 794.371 118.815 795.75 113.202 797.177 113.202 801.411 113.202 805.645 111.823 822.581 109.04 831.073 106.21 839.54 103.452 846.605 103.452 846.605 113.202 848.032 123 848.032 171.895 846.605 185.927 845.177 199.911 848.032 205.476 857.879 204.097 866.347 202.669 879.073 191.492 881.903 184.524 883.282 174.75 880.476 163.573 880.476 149.565 880.476 134.177 879.073 111.823 881.903 106.234 884.71 100.645 891.774 96.4597 905.855 93.629 918.605 90.8468 922.815 90.8468 929.903 86.6855 936.944 83.8548 945.411 74.1048 946.815 68.4919 948.242 62.9032 946.815 50.2984 938.347 51.7258 928.476 54.5323 915.798 58.7177 903.073 61.5242 891.798 62.9274 852.242 68.5161 840.944 69.9194 828.218 71.2984 821.202 72.7016 815.54 74.1048 808.452 76.8629 801.411 85.2823 798.581 89.4677 795.75 93.629 787.282 97.8629 787.282 90.871 787.282 81.0968 787.282 58.7177 785.855 41.9516 784.427 32.1532 773.153 39.121 770.347 41.9516 767.492 43.3306 754.839 57.2903 754.839 60.121 753.411 64.3064 752.008 67.0887 752.008 81.0726 753.411 93.629 753.411 99.2419 752.008 104.831 752.008 109.04 747.774 114.629 733.621 114.629 718.089 114.629 698.347 106.21 692.71 104.831 685.645 102.024 644.734 81.0726 636.218 78.2661 629.153 74.0807 622.137 71.2742 615.048 78.2661 607.984 86.6855 599.54 95.0565 596.685 99.2419 593.879 104.831 592.476 117.435 592.476 125.806 593.903 131.371 588.242 129.992 581.177 132.774 576.944 134.177 568.452 145.379 555.774 152.395 545.855 159.339 526.113 170.516 499.282 176.105 485.202 180.339 468.194 178.911 463.984 173.323 458.347 167.71 462.581 159.315 466.815 155.153 469.621 152.371 488.008 142.548 503.516 134.153 519.048 127.161 533.177 110.395 534.581 102.024 535.984 93.6048 527.565 85.2581 520.476 89.4436 509.177 95.0565 499.282 103.452 493.645 106.21 488.008 110.419 485.202 111.823 480.919 111.823 475.282 111.823 469.621 106.21 472.452 100.645 475.258 96.4597 486.556 92.2742 493.621 85.2823 502.065 78.2661 519.024 68.4919 520.452 58.7177 521.879 50.3226 510.581 43.3548 503.492 47.5403 488.032 54.5323 459.774 69.871 459.774 69.871" fill="#01426A" transform="matrix(1.00093 0 0 1 118.911 144)"/><path d="M968.057 82.4516C983.589 76.8387 987.847 75.5081 990.653 76.8387 993.46 76.8387 990.653 81.0726 999.097 81.0726 1007.59 81.0726 1025.95 83.8548 1037.25 89.4436 1048.52 93.6048 1062.65 111.823 1058.44 135.581 1054.21 159.315 1034.42 181.694 1018.89 191.468 1004.81 199.887 986.444 209.661 951.097 206.903 915.847 205.476 917.226 177.508 918.653 163.548 920.081 149.54 929.952 132.774 931.379 129.992 932.758 127.161 932.758 125.806 928.524 125.806 925.718 124.403 922.863 120.218 924.315 116.008 925.718 110.419 931.379 103.452 939.823 95.0323 945.46 89.4436 952.524 86.6613 968.057 82.4516M963.823 117.411C956.758 121.573 953.952 138.339 952.524 143.976 951.097 150.944 948.29 169.137 965.202 170.516 980.782 171.919 999.097 167.758 1009.02 157.96 1020.29 148.185 1024.52 134.177 1018.86 125.806 1013.23 118.815 999.097 116.008 992.081 116.008 984.992 116.008 970.887 114.629 963.823 117.411" fill="#01426A" transform="matrix(1.00093 0 0 1 118.911 144)"/></g></svg>